<?xml version="1.0" encoding="UTF-8" standalone="no"?>
<svg
   width="48"
   height="48"
   viewBox="0 0 48.000001 48"
   fill="none"
   version="1.1"
   id="svg4"
   sodipodi:docname="seqerakit.svg"
   inkscape:version="1.3.2 (1:1.3.2+202311252150+091e20ef0f)"
   xml:space="preserve"
   inkscape:export-filename="seqerakit.png"
   inkscape:export-xdpi="850.05048"
   inkscape:export-ydpi="850.05048"
   xmlns:inkscape="http://www.inkscape.org/namespaces/inkscape"
   xmlns:sodipodi="http://sodipodi.sourceforge.net/DTD/sodipodi-0.dtd"
   xmlns="http://www.w3.org/2000/svg"
   xmlns:svg="http://www.w3.org/2000/svg"><sodipodi:namedview
     id="namedview4"
     pagecolor="#ffffff"
     bordercolor="#000000"
     borderopacity="0.25"
     inkscape:showpageshadow="2"
     inkscape:pageopacity="0.0"
     inkscape:pagecheckerboard="0"
     inkscape:deskcolor="#d1d1d1"
     inkscape:zoom="9.2604169"
     inkscape:cx="2.9696287"
     inkscape:cy="36.22947"
     inkscape:window-width="1920"
     inkscape:window-height="1128"
     inkscape:window-x="0"
     inkscape:window-y="0"
     inkscape:window-maximized="1"
     inkscape:current-layer="svg4"
     inkscape:export-bgcolor="#ffffff00"
     showgrid="false" /><defs
     id="defs4"><clipPath
       clipPathUnits="userSpaceOnUse"
       id="clipPath5"><g
         id="g6"><rect
           width="48"
           height="48"
           fill="#ffffff"
           id="rect5"
           x="0"
           y="0" /></g></clipPath><clipPath
       clipPathUnits="userSpaceOnUse"
       id="clipPath6"><g
         id="g7"><rect
           width="48"
           height="48"
           fill="#ffffff"
           id="rect6"
           x="0"
           y="0" /></g></clipPath><clipPath
       clipPathUnits="userSpaceOnUse"
       id="clipPath7"><g
         id="g8"><rect
           width="48"
           height="48"
           fill="#ffffff"
           id="rect7"
           x="0"
           y="0" /></g></clipPath><clipPath
       clipPathUnits="userSpaceOnUse"
       id="clipPath8"><g
         id="g9"><rect
           width="48"
           height="48"
           fill="#ffffff"
           id="rect8"
           x="0"
           y="0" /></g></clipPath><clipPath
       id="clip0_934_9493"><rect
         width="250"
         height="250"
         fill="#ffffff"
         id="rect8-3"
         x="0"
         y="0" /></clipPath></defs><path
     id="path1"
     style="fill:none;stroke-width:1.13385827;stroke:#ffffff;stroke-dasharray:none"
     d="M 29.87233,1.1972656 29.421158,1.21875 c -0.598255,0.030348 -1.344129,0.309777 -2.214844,0.828125 l -0.710937,0.4238281 -0.880859,0.7773438 -0.882813,0.7773437 -0.351563,0.453125 c -0.603929,0.7773715 -0.717529,1.6002075 -0.330078,2.3730469 0.250287,0.499238 0.234592,0.6257863 -0.166015,1.4023437 -1.994861,3.8669318 -1.240437,6.4304438 2.642578,8.9863278 l 1.066406,0.703125 0.382813,0.451172 0.384765,0.453125 0.138672,0.384766 c 0.07653,0.212272 0.123609,0.578792 0.105469,0.8125 l -0.0332,0.423828 -0.212891,0.347656 c -0.206302,0.336529 -0.495609,0.571136 -0.833984,0.705078 -0.0019,7.55e-4 -0.004,0.0012 -0.0059,0.002 -0.271887,0.106932 -0.575775,0.14535 -0.894531,0.117187 -0.09138,-0.0081 -0.183868,-0.02349 -0.277344,-0.04297 -0.03124,-0.0065 -0.06233,-0.0098 -0.09375,-0.01758 -0.115536,-0.02867 -0.232614,-0.06903 -0.349609,-0.115234 -0.04124,-0.01629 -0.08175,-0.03425 -0.123047,-0.05273 -0.122542,-0.05486 -0.245232,-0.115029 -0.367187,-0.189453 L 25.018777,20.980517 24.219949,20.16411 c -0.204288,-0.209232 -0.508225,-0.548194 -0.833984,-0.923828 -0.02721,-0.03134 -0.04279,-0.04623 -0.07031,-0.07813 -3.4e-4,-3.94e-4 3.41e-4,-0.0016 0,-0.002 -0.354061,-0.41036 -0.731586,-0.862489 -1.048828,-1.259765 -0.143891,-0.180194 -0.285482,-0.353364 -0.425781,-0.521485 -0.05678,-0.06804 -0.113662,-0.135072 -0.169922,-0.201172 -0.490117,-0.575843 -0.962384,-1.078033 -1.425781,-1.513672 -0.01899,-0.01785 -0.03798,-0.03502 -0.05664,-0.05273 -0.303558,-0.282151 -0.603367,-0.536951 -0.904297,-0.763672 -0.0045,-0.0034 -0.0092,-0.0064 -0.01367,-0.0098 -0.175433,-0.131701 -0.35097,-0.255266 -0.527344,-0.369141 -0.312659,-0.201866 -0.627827,-0.376358 -0.949219,-0.525391 -0.162137,-0.07518 -0.326414,-0.14256 -0.492187,-0.205078 -0.04483,-0.0169 -0.08963,-0.03478 -0.134766,-0.05078 -0.0033,-0.0012 -0.0065,-0.0027 -0.0098,-0.0039 -0.860443,-0.303626 -1.777882,-0.44599 -2.820246,-0.458957 -0.211756,-0.0026 -0.429854,2.2e-4 -0.652344,0.0078 l -0.835937,0.0293 -0.681641,0.216797 c -0.827687,0.264385 -1.331092,0.537803 -2.046875,1.109375 l -0.542969,0.43359 -0.414062,0.511719 c -1.826107,2.262337 -2.056227,5.12818 -0.601563,7.49806 l 0.296875,0.482422 0.605469,0.607422 c 1.314941,1.32188 2.855598,2.108396 5.890625,3.001953 7.2583,2.136952 9.271871,3.577569 8.460937,6.054687 l -0.140625,0.431641 -0.304687,0.365234 -0.304688,0.365235 -0.341797,0.152344 c -1.370506,0.612991 -2.655695,-0.01013 -5.533203,-2.681641 l -1.55664,-1.445313 -0.597656,-0.414062 C 12.929607,28.484849 11.181282,27.981681 9.766861,28.435547 l -0.392578,0.125 -0.464844,0.412109 -0.46289,0.41211 -0.244141,0.439453 c -0.679964,1.231743 -0.629095,2.427998 0.158203,3.734375 l 0.275391,0.457031 1.308594,1.402344 1.310547,1.404297 0.24414,0.476562 c 0.807797,1.578541 0.547639,3.470329 -0.818359,5.933594 -0.579777,1.045497 -0.55839,1.130656 0.11914,0.453125 0.93509,-0.93509 1.612324,-2.037596 2.070313,-3.373047 l 0.25,-0.730469 0.002,-0.871093 0.0019,-0.871094 -0.226563,-0.697266 C 12.535032,36.027169 12.271897,35.61236 10.925064,34.035156 9.654933,32.547775 9.485366,32.21899 9.59108,31.433594 l 0.05078,-0.375 0.308594,-0.355469 0.30664,-0.355469 0.404297,-0.02734 c 0.881259,-0.05724 2.107799,0.575047 3.695313,1.902344 l 0.753906,0.628906 1.087891,1.226563 1.089844,1.226563 0.613281,0.478515 c 2.546854,1.987845 5.44769,2.346482 7.386719,0.914063 0.74791,-0.552506 1.390911,-1.497843 1.783203,-2.623047 l 0.253906,-0.726563 0.0039,-0.93164 0.0039,-0.931641 -0.25,-0.732422 C 26.945517,30.349855 26.6796,29.786268 26.491471,29.498047 l -0.34375,-0.525391 -0.951172,-0.894531 -0.953125,-0.894531 -0.580078,-0.345703 C 22.67923,26.249461 21.485261,25.770596 18.444596,24.748047 15.1691,23.646526 14.410184,23.344096 13.321549,22.701172 L 12.567643,22.255859 12.15358,21.789062 11.737564,21.324219 11.55983,20.847656 c -0.225384,-0.606012 -0.256853,-1.387417 -0.08008,-1.955078 l 0.138672,-0.443359 0.490234,-0.492188 0.490235,-0.492187 0.476562,-0.171875 c 1.272314,-0.460034 2.636598,-0.167167 4.082031,0.86914 0.04808,0.03447 0.09628,0.07326 0.144532,0.109375 0.08118,0.06075 0.162463,0.122103 0.24414,0.1875 0.06018,0.04818 0.121193,0.09773 0.181641,0.148438 0.07226,0.06062 0.144149,0.123272 0.216797,0.1875 0.20315,0.179608 0.407167,0.372242 0.613281,0.580078 0.119701,0.120702 0.240643,0.246727 0.361328,0.376953 0.06375,0.06879 0.127386,0.139492 0.191406,0.210938 0.261397,0.291715 0.525155,0.603408 0.791016,0.939453 0.476908,0.602809 1.220852,1.449269 1.654297,1.882812 l 0.789062,0.789063 0.767578,0.542969 c 1.641628,1.158809 3.048314,1.619049 4.78711,1.568359 l 0.789062,-0.02344 0.716797,-0.24414 c 0.112713,-0.03837 0.218617,-0.07862 0.320313,-0.119141 l -0.0039,-0.0059 c 0.684331,-0.274211 1.157078,-0.610873 1.710938,-1.234375 l 0.488281,-0.550782 0.333984,-0.673828 c 0.914711,-1.847418 0.830096,-3.66521 -0.25,-5.363281 L 31.649679,16.914019 30.803976,16.130816 29.958273,15.349566 29.29421,14.972613 C 28.929064,14.76618 28.371928,14.466981 28.055924,14.306641 27.739918,14.1463 27.261623,13.858996 26.993424,13.667969 l -0.488282,-0.347657 -0.238281,-0.367187 c -0.591757,-0.914866 -0.56259,-2.344502 0.07422,-3.7070312 L 26.577408,8.7382812 26.90358,8.6953125 C 27.083592,8.6710835 27.49814,8.5551028 27.823502,8.4375 L 28.415299,8.2226562 28.985611,7.6972656 29.557877,7.1699219 29.866471,6.5546875 C 30.798551,4.6950903 31.095113,2.7095172 30.577408,1.796875 L 30.411392,1.5058594 30.141861,1.3515625 Z" /><path
     id="path7"
     style="fill:#fa6863;fill-opacity:1;stroke-width:0.371619"
     d="M 7.0596988,25.035587 H 15.905401 V 48.051213 H 7.0596988 Z"
     sodipodi:nodetypes="ccccc" /><path
     id="path6"
     style="fill:#f18046;stroke-width:0.371619;fill-opacity:1"
     d="m 32.09378,0.052028 h 8.845703 C 40.421084,12.518516 30.396246,22.525372 17.923858,23.016872 v -8.84375 C 25.505951,13.696922 31.590741,7.626421 32.09378,0.052028 Z"
     sodipodi:nodetypes="ccccc" /><path
     id="path5"
     style="fill:#0dc09d;stroke-width:0.371619;fill-opacity:1"
     d="M 7.0596985,6.8715e-4 H 15.905401 V 23.016313 H 7.0596985 Z"
     sodipodi:nodetypes="ccccc" /><path
     id="path10"
     style="fill:#3d95fd;stroke-width:0.371619;fill-opacity:1"
     d="m 32.067829,48.025822 h 8.845703 C 40.395133,35.559332 30.370295,25.552477 17.897907,25.060977 v 8.843745 c 7.582093,0.47621 13.666883,6.54671 14.169922,14.1211 z"
     sodipodi:nodetypes="ccccc" /><path
     id="path28"
     style="fill:#000000;stroke-width:0.0816554"
     d="M 29.87233,1.1972656 29.421158,1.21875 c -0.598255,0.030348 -1.344129,0.309777 -2.214844,0.828125 l -0.710937,0.4238281 -0.880859,0.7773438 -0.882813,0.7773437 -0.351563,0.453125 c -0.603929,0.7773715 -0.717529,1.6002075 -0.330078,2.3730469 0.250287,0.499238 0.234592,0.6257863 -0.166015,1.4023437 -1.994861,3.8669318 -1.240437,6.4304438 2.642578,8.9863278 l 1.066406,0.703125 0.382813,0.451172 0.384765,0.453125 0.138672,0.384766 c 0.07653,0.212272 0.123609,0.578792 0.105469,0.8125 l -0.0332,0.423828 -0.212891,0.347656 c -0.206302,0.336529 -0.495609,0.571136 -0.833984,0.705078 -0.0019,7.55e-4 -0.004,0.0012 -0.0059,0.002 -0.271887,0.106932 -0.575775,0.14535 -0.894531,0.117187 -0.09138,-0.0081 -0.183868,-0.02349 -0.277344,-0.04297 -0.03124,-0.0065 -0.06233,-0.0098 -0.09375,-0.01758 -0.115536,-0.02867 -0.232614,-0.06903 -0.349609,-0.115234 -0.04124,-0.01629 -0.08175,-0.03425 -0.123047,-0.05273 -0.122542,-0.05486 -0.245232,-0.115029 -0.367187,-0.189453 L 25.018777,20.980517 24.219949,20.16411 c -0.204288,-0.209232 -0.508225,-0.548194 -0.833984,-0.923828 -0.02721,-0.03134 -0.04279,-0.04623 -0.07031,-0.07813 -3.4e-4,-3.94e-4 3.41e-4,-0.0016 0,-0.002 -0.354061,-0.41036 -0.731586,-0.862489 -1.048828,-1.259765 -0.143891,-0.180194 -0.285482,-0.353364 -0.425781,-0.521485 -0.05678,-0.06804 -0.113662,-0.135072 -0.169922,-0.201172 -0.490117,-0.575843 -0.962384,-1.078033 -1.425781,-1.513672 -0.01899,-0.01785 -0.03798,-0.03502 -0.05664,-0.05273 -0.303558,-0.282151 -0.603367,-0.536951 -0.904297,-0.763672 -0.0045,-0.0034 -0.0092,-0.0064 -0.01367,-0.0098 -0.175433,-0.131701 -0.35097,-0.255266 -0.527344,-0.369141 -0.312659,-0.201866 -0.627827,-0.376358 -0.949219,-0.525391 -0.162137,-0.07518 -0.326414,-0.14256 -0.492187,-0.205078 -0.04483,-0.0169 -0.08963,-0.03478 -0.134766,-0.05078 -0.0033,-0.0012 -0.0065,-0.0027 -0.0098,-0.0039 -0.860443,-0.303626 -1.777882,-0.44599 -2.820246,-0.458957 -0.211756,-0.0026 -0.429854,2.2e-4 -0.652344,0.0078 l -0.835937,0.0293 -0.681641,0.216797 c -0.827687,0.264385 -1.331092,0.537803 -2.046875,1.109375 l -0.542969,0.43359 -0.414062,0.511719 c -1.826107,2.262337 -2.056227,5.12818 -0.601563,7.49806 l 0.296875,0.482422 0.605469,0.607422 c 1.314941,1.32188 2.855598,2.108396 5.890625,3.001953 7.2583,2.136952 9.271871,3.577569 8.460937,6.054687 l -0.140625,0.431641 -0.304687,0.365234 -0.304688,0.365235 -0.341797,0.152344 c -1.370506,0.612991 -2.655695,-0.01013 -5.533203,-2.681641 l -1.55664,-1.445313 -0.597656,-0.414062 C 12.929607,28.484849 11.181282,27.981681 9.766861,28.435547 l -0.392578,0.125 -0.464844,0.412109 -0.46289,0.41211 -0.244141,0.439453 c -0.679964,1.231743 -0.629095,2.427998 0.158203,3.734375 l 0.275391,0.457031 1.308594,1.402344 1.310547,1.404297 0.24414,0.476562 c 0.807797,1.578541 0.547639,3.470329 -0.818359,5.933594 -0.579777,1.045497 -0.55839,1.130656 0.11914,0.453125 0.93509,-0.93509 1.612324,-2.037596 2.070313,-3.373047 l 0.25,-0.730469 0.002,-0.871093 0.0019,-0.871094 -0.226563,-0.697266 C 12.535032,36.027169 12.271897,35.61236 10.925064,34.035156 9.654933,32.547775 9.485366,32.21899 9.59108,31.433594 l 0.05078,-0.375 0.308594,-0.355469 0.30664,-0.355469 0.404297,-0.02734 c 0.881259,-0.05724 2.107799,0.575047 3.695313,1.902344 l 0.753906,0.628906 1.087891,1.226563 1.089844,1.226563 0.613281,0.478515 c 2.546854,1.987845 5.44769,2.346482 7.386719,0.914063 0.74791,-0.552506 1.390911,-1.497843 1.783203,-2.623047 l 0.253906,-0.726563 0.0039,-0.93164 0.0039,-0.931641 -0.25,-0.732422 C 26.945517,30.349855 26.6796,29.786268 26.491471,29.498047 l -0.34375,-0.525391 -0.951172,-0.894531 -0.953125,-0.894531 -0.580078,-0.345703 C 22.67923,26.249461 21.485261,25.770596 18.444596,24.748047 15.1691,23.646526 14.410184,23.344096 13.321549,22.701172 L 12.567643,22.255859 12.15358,21.789062 11.737564,21.324219 11.55983,20.847656 c -0.225384,-0.606012 -0.256853,-1.387417 -0.08008,-1.955078 l 0.138672,-0.443359 0.490234,-0.492188 0.490235,-0.492187 0.476562,-0.171875 c 1.272314,-0.460034 2.636598,-0.167167 4.082031,0.86914 0.04808,0.03447 0.09628,0.07326 0.144532,0.109375 0.08118,0.06075 0.162463,0.122103 0.24414,0.1875 0.06018,0.04818 0.121193,0.09773 0.181641,0.148438 0.07226,0.06062 0.144149,0.123272 0.216797,0.1875 0.20315,0.179608 0.407167,0.372242 0.613281,0.580078 0.119701,0.120702 0.240643,0.246727 0.361328,0.376953 0.06375,0.06879 0.127386,0.139492 0.191406,0.210938 0.261397,0.291715 0.525155,0.603408 0.791016,0.939453 0.476908,0.602809 1.220852,1.449269 1.654297,1.882812 l 0.789062,0.789063 0.767578,0.542969 c 1.641628,1.158809 3.048314,1.619049 4.78711,1.568359 l 0.789062,-0.02344 0.716797,-0.24414 c 0.112713,-0.03837 0.218617,-0.07862 0.320313,-0.119141 l -0.0039,-0.0059 c 0.684331,-0.274211 1.157078,-0.610873 1.710938,-1.234375 l 0.488281,-0.550782 0.333984,-0.673828 c 0.914711,-1.847418 0.830096,-3.66521 -0.25,-5.363281 L 31.649679,16.914019 30.803976,16.130816 29.958273,15.349566 29.29421,14.972613 C 28.929064,14.76618 28.371928,14.466981 28.055924,14.306641 27.739918,14.1463 27.261623,13.858996 26.993424,13.667969 l -0.488282,-0.347657 -0.238281,-0.367187 c -0.591757,-0.914866 -0.56259,-2.344502 0.07422,-3.7070312 L 26.577408,8.7382812 26.90358,8.6953125 C 27.083592,8.6710835 27.49814,8.5551028 27.823502,8.4375 L 28.415299,8.2226562 28.985611,7.6972656 29.557877,7.1699219 29.866471,6.5546875 C 30.798551,4.6950903 31.095113,2.7095172 30.577408,1.796875 L 30.411392,1.5058594 30.141861,1.3515625 Z" /><path
     id="path8"
     style="fill:#fa6863;fill-opacity:1;stroke-width:0.371619"
     d="m 7.0596988,25.035587 h 8.8457022 v 3.015626 H 7.0596988 Z"
     sodipodi:nodetypes="ccccc" /><path
     id="path9"
     style="fill:#f18046;fill-opacity:1;stroke-width:0.371619"
     d="m 22.015625,13.337891 c -1.292841,0.45807 -2.665874,0.746381 -4.091797,0.835937 v 8.84375 c 3.031182,-0.11945 5.915912,-0.805061 8.556641,-1.947266 z"
     sodipodi:nodetypes="ccccc" /><path
     id="path11"
     style="fill:#3d95fd;fill-opacity:1;stroke-width:0.371619"
     d="m 17.898438,30.074219 v 3.830078 c 0.825477,0.05185 1.631304,0.174329 2.416015,0.353515 z"
     sodipodi:nodetypes="cccc" /></svg>
