<?xml version="1.0" encoding="UTF-8"?>
<svg id="Layer_1" data-name="Layer 1" xmlns="http://www.w3.org/2000/svg" viewBox="0 0 39.75 39.75">
  <defs>
    <style>
      .cls-1 {
        fill: #fff;
      }

      .cls-2 {
        fill: #4256e7;
      }
    </style>
  </defs>
  <circle class="cls-1" cx="19.87" cy="19.87" r="19.87"/>
  <g id="g3856">
    <g id="g3854">
      <path id="path3844" class="cls-2" d="m19.87,2.42C10.23,2.42,2.42,10.23,2.42,19.87s7.82,17.46,17.46,17.46,17.45-7.82,17.45-17.46c0-9.64-7.82-17.45-17.45-17.45Zm.07,33.6c-8.96,0-16.22-7.26-16.22-16.22S10.99,3.58,19.94,3.58s16.22,7.26,16.22,16.22c0,8.96-7.26,16.22-16.22,16.22Z"/>
      <g id="g3852">
        <circle id="circle3846" class="cls-2" cx="21.43" cy="17.28" r=".58"/>
        <circle id="circle3848" class="cls-2" cx="23.3" cy="18.66" r=".58"/>
        <path id="path3850" class="cls-2" d="m29.53,10.2s-.05,0-.08,0c-.06-.02-.11-.04-.18-.04h-6.42s.01-.08.01-.13v-1.38c0-.15-.04-.29-.11-.4-.06-.27-.37-.48-.74-.48h-3.34c-.4,0-.72.24-.75.54-.07.11-.11.25-.11.4v1.38s0,.05,0,.07h-6.68c-.09,0-.17.03-.25.07-.27.11-.41.43-.33.75l3.42,13.62c.09.35.41.57.72.49.02,0,.04-.01.06-.02.06.01.12.02.19.02h2.46v11.41h1.16v-11.41h3.39v11.46h1.16v-11.46h2.59s.04,0,.06,0c0,0,.01,0,.02,0,.31.08.64-.14.72-.49l3.42-13.62c.09-.35-.09-.7-.4-.78Zm-14.52,13.72l-.7-2.79c.1.02.22.03.33.03h11.53s-.69,2.76-.69,2.76h-10.47Zm-2.36-9.39c.2.06.44.09.69.09h3.28s-.01.06-.01.1v5.28s-1.97,0-1.97,0c-.22,0-.42.04-.59.1l-1.4-5.58Zm13.81,5.48c-.07,0-.15-.01-.22-.01h-4.28s0-.03,0-.05v-.85c0-.38-.26-.69-.58-.69s-.58.31-.58.69v.85s0,.03,0,.05h-3.03s0-5.28,0-5.28c0-.03,0-.07-.01-.1h3.14s0,.81,0,.81c0,.38.26.69.58.69s.58-.31.58-.69v-.82h.85c-.07.13-.11.28-.11.45v1.57c0,.43.26.79.58.79s.58-.35.58-.79v-1.57c0-.17-.04-.32-.11-.45h3.66c.11,0,.21,0,.31-.02l-1.36,5.42Zm1.63-6.49c-.17-.04-.37-.06-.58-.06h-14.17c-.36.01-.69.08-.92.18l-.58-2.33h16.8l-.55,2.2Zm-9.11-3.44v-1.15h2.73v1.09s0,.09.01.13h-2.74s0-.05,0-.07Z"/>
      </g>
    </g>
  </g>
  <path id="path3850-6" class="cls-2" d="m29.53,10.2s-.05,0-.08,0c-.06-.02-.11-.04-.18-.04h-6.42s.01-.08.01-.13v-1.38c0-.15-.04-.29-.11-.4-.06-.27-.37-.48-.74-.48h-3.34c-.4,0-.72.24-.75.54-.07.11-.11.25-.11.4v1.38s0,.05,0,.07h-6.68c-.09,0-.17.03-.25.07-.27.11-.41.43-.33.75l3.42,13.62c.09.35.41.57.72.49.02,0,.04-.01.06-.02.06.01.12.02.19.02h2.46v11.41h1.16v-11.41h3.39v11.46h1.16v-11.46h2.59s.04,0,.06,0c0,0,.01,0,.02,0,.31.08.64-.14.72-.49l3.42-13.62c.09-.35-.09-.7-.4-.78Zm-14.52,13.72l-.7-2.79c.1.02.22.03.33.03h11.53s-.69,2.76-.69,2.76h-10.47Zm-2.36-9.39c.2.06.44.09.69.09h3.28s-.01.06-.01.1v5.28s-1.97,0-1.97,0c-.22,0-.42.04-.59.1l-1.4-5.58Zm13.81,5.48c-.07,0-.15-.01-.22-.01h-4.28s0-.03,0-.05v-.85c0-.38-.26-.69-.58-.69s-.58.31-.58.69v.85s0,.03,0,.05h-3.03s0-5.28,0-5.28c0-.03,0-.07-.01-.1h3.14s0,.81,0,.81c0,.38.26.69.58.69s.58-.31.58-.69v-.82h.85c-.07.13-.11.28-.11.45v1.57c0,.43.26.79.58.79s.58-.35.58-.79v-1.57c0-.17-.04-.32-.11-.45h3.66c.11,0,.21,0,.31-.02l-1.36,5.42Zm1.63-6.49c-.17-.04-.37-.06-.58-.06h-14.17c-.36.01-.69.08-.92.18l-.58-2.33h16.8l-.55,2.2Zm-9.11-3.44v-1.15h2.73v1.09s0,.09.01.13h-2.74s0-.05,0-.07Z"/>
  <path id="path634" d="m28.62,6.61c-.75-.01-1.81.38-2.45.93-.32.28-.44.44-.84,1.14-.33.58-.44.79-.66,1.48h4.48c.09-.15.16-.29.21-.44.3-.76.37-1.57.22-2.29-.1-.45-.32-.71-.66-.78-.09-.02-.19-.03-.3-.03Zm.09,9.25l-.89,3.53c.04.3-.02.56-.18.85-.01.03-.03.05-.05.07l-.77,3.06c.22-.03.45-.06.7-.13,1.1-.29,1.75-.79,2.34-1.81.71-1.22.72-2.62.03-3.96-.28-.55-.62-1.03-1.18-1.62Zm-16.78.52c-.17.21-.32.45-.6.93-.63,1.09-.79,1.62-.87,2.8-.09,1.38.24,2.63,1.01,3.77.6.89.98,1.24,1.95,1.79,1.23.7,2.33,1.02,4,1.09v-1.69h-2.46c-.06,0-.12,0-.18-.02-.02,0-.04.02-.06.02-.31.08-.63-.14-.72-.49l-.46-1.82c-.62-.8-.87-1.79-.72-2.88l-.88-3.51Zm13.85,8.7s-.04,0-.06,0h-2.59v1.6c.12.01.23.02.36.04,2.11.32,3.3,1.37,3.2,2.84-.04.53-.5,1.34-.99,1.74-.62.5-1.54.66-2.49.43-.02,0-.04-.01-.06-.02v2.31c.52.09,1.04.13,1.56.09,1.65-.12,3.3-1.38,3.96-3.02.99-2.47-.13-4.85-2.6-6-.08.02-.17.02-.25,0,0,0-.01,0-.02,0Zm-10.55,3.25c-1.72.06-3.4.72-4.86,1.32,4.45-.09,5.59.14,7.06,1.14v-2.15c-.73-.25-1.46-.34-2.19-.32Z"/>
  <path id="path646" d="m28.64,31.09c1.19-2.98-.68-5.83-4.29-6.55-1.27-.25-1.91-.27-4.39-.12-2.55.16-3.71.04-4.94-.49-.51-.22-.68-.32-1.01-.62-.52-.47-.89-1.03-1.08-1.65l-2.48-1.54c-.09,1.38.24,2.63,1.01,3.77.6.89.98,1.24,1.95,1.79,1.78,1.01,3.24,1.24,6.61,1.05,2.09-.12,2.65-.12,3.47,0,2.11.32,3.3,1.37,3.2,2.84l1.96,1.52Z"/>
  <path id="path649" d="m29.86,21.44c.71-1.22.72-2.62.03-3.96-.44-.87-1.02-1.54-2.41-2.8-.98-.88-1.09-1.22-.66-1.96.2-.35.38-.55.97-1.06.92-.8,1.34-1.33,1.58-1.95.3-.76.37-1.57.22-2.29-.1-.45-.32-.71-.66-.78-.74-.15-2.02.26-2.75.9-.32.28-.44.44-.84,1.14-.45.79-.49.88-.94,2.44-.55,1.89-.61,2.39-.4,3.18.19.71.62,1.33,1.44,2.07,1.77,1.6,2.06,1.93,2.3,2.66.16.47.13.82-.09,1.22l2.22,1.2Z"/>
</svg>