<?xml version="1.0" encoding="UTF-8" standalone="no"?>
<!-- Generator: Adobe Illustrator 16.0.0, SVG Export Plug-In . SVG Version: 6.00 Build 0)  -->

<svg
   version="1.1"
   id="Layer_1"
   inkscape:version="1.2.2 (1:1.2.2+202305151914+b0a8486541)"
   sodipodi:docname="tw-py.svg"
   x="1280px"
   y="640px"
   width="34.91"
   height="34.91"
   viewBox="0 0 34.91 34.91"
   enable-background="new 0 0 220.59 34.91"
   xml:space="preserve"
   inkscape:export-filename="tw-py.png"
   inkscape:export-xdpi="274.99283"
   inkscape:export-ydpi="274.99283"
   xmlns:inkscape="http://www.inkscape.org/namespaces/inkscape"
   xmlns:sodipodi="http://sodipodi.sourceforge.net/DTD/sodipodi-0.dtd"
   xmlns="http://www.w3.org/2000/svg"
   xmlns:svg="http://www.w3.org/2000/svg"
   xmlns:rdf="http://www.w3.org/1999/02/22-rdf-syntax-ns#"
   xmlns:cc="http://creativecommons.org/ns#"
   xmlns:dc="http://purl.org/dc/elements/1.1/"><metadata
     id="metadata941"><rdf:RDF><cc:Work
         rdf:about=""><dc:format>image/svg+xml</dc:format><dc:type
           rdf:resource="http://purl.org/dc/dcmitype/StillImage" /></cc:Work></rdf:RDF></metadata><defs
     id="defs939" /><sodipodi:namedview
     inkscape:cx="-6.625"
     inkscape:cy="42.75"
     bordercolor="#666666"
     guidetolerance="10"
     pagecolor="#ffffff"
     borderopacity="1"
     showgrid="false"
     objecttolerance="10"
     inkscape:zoom="4"
     gridtolerance="10"
     id="namedview3889"
     inkscape:measure-end="0,0"
     inkscape:measure-start="0,0"
     inkscape:current-layer="Layer_1"
     inkscape:pageopacity="0"
     inkscape:window-maximized="1"
     inkscape:window-width="1920"
     inkscape:window-height="1132"
     inkscape:window-x="0"
     inkscape:window-y="0"
     inkscape:pageshadow="2"
     inkscape:showpageshadow="2"
     inkscape:pagecheckerboard="0"
     inkscape:deskcolor="#d1d1d1" /><g
     id="g3856"
     transform="translate(-2.667)"
     style="fill:#4256e7;fill-opacity:1"><g
       id="g3854"
       style="fill:#4256e7;fill-opacity:1"><path
         id="path3844"
         inkscape:connector-curvature="0"
         d="M 20.123,0 C 10.482,0 2.667,7.813 2.667,17.454 c 0,9.641 7.815,17.456 17.456,17.456 9.638,0 17.454,-7.816 17.454,-17.457 C 37.576,7.813 29.759,0 20.123,0 Z m 0.07,33.602 c -8.958,0 -16.22,-7.262 -16.22,-16.221 0,-8.957 7.262,-16.219 16.22,-16.219 8.958,0 16.22,7.262 16.22,16.219 0.001,8.959 -7.262,16.221 -16.22,16.221 z"
         style="fill:#4256e7;fill-opacity:1" /><g
         id="g3852"
         style="fill:#4256e7;fill-opacity:1"><circle
           id="circle3846"
           cx="21.683001"
           cy="14.865"
           r="0.58099997"
           style="fill:#4256e7;fill-opacity:1" /><circle
           id="circle3848"
           cx="23.545"
           cy="16.239"
           r="0.57999998"
           style="fill:#4256e7;fill-opacity:1" /><path
           id="path3850"
           inkscape:connector-curvature="0"
           d="M 29.78,7.783 C 29.755,7.777 29.73,7.777 29.704,7.774 29.649,7.752 29.59,7.738 29.528,7.738 H 23.112 C 23.118,7.696 23.123,7.654 23.123,7.609 V 6.232 c 0,-0.151 -0.042,-0.288 -0.11,-0.401 -0.064,-0.272 -0.37,-0.479 -0.741,-0.479 h -3.341 c -0.396,0 -0.719,0.238 -0.748,0.539 -0.07,0.112 -0.109,0.25 -0.109,0.4 v 1.375 c 0,0.025 0.002,0.047 0.005,0.072 H 11.4 c -0.092,0 -0.174,0.026 -0.25,0.071 -0.266,0.11 -0.414,0.427 -0.333,0.751 l 3.417,13.619 c 0.088,0.35 0.414,0.57 0.723,0.492 0.021,-0.006 0.038,-0.014 0.056,-0.02 0.059,0.01 0.122,0.016 0.185,0.016 h 2.463 v 11.41 h 1.162 v -11.41 h 3.394 v 11.461 h 1.162 v -11.46 h 2.586 c 0.02,0 0.039,-0.002 0.057,-0.002 0.006,0 0.011,0.004 0.017,0.006 0.313,0.078 0.635,-0.143 0.724,-0.492 L 30.182,8.561 C 30.271,8.21 30.091,7.86 29.78,7.783 Z m -14.515,13.723 -0.7,-2.793 c 0.104,0.02 0.218,0.031 0.334,0.031 l 11.532,-0.008 -0.694,2.77 z m -2.358,-9.391 c 0.201,0.056 0.439,0.09 0.694,0.09 l 3.281,-0.002 c -0.009,0.033 -0.012,0.065 -0.012,0.102 l 0.003,5.282 -1.976,0.002 c -0.218,0 -0.421,0.039 -0.59,0.101 z m 13.812,5.478 c -0.072,-0.008 -0.146,-0.012 -0.223,-0.012 l -4.279,0.003 c 0,-0.019 0.004,-0.034 0.004,-0.051 V 16.68 c 0,-0.38 -0.26,-0.688 -0.582,-0.688 -0.32,0 -0.58,0.308 -0.58,0.688 v 0.853 c 0,0.017 0.003,0.033 0.003,0.053 l -3.03,0.001 -0.004,-5.284 c 0,-0.034 -0.005,-0.068 -0.014,-0.101 l 3.139,-10e-4 v 0.815 c 0,0.379 0.26,0.689 0.58,0.689 0.322,0 0.582,-0.31 0.582,-0.689 V 12.2 l 0.848,-10e-4 c -0.067,0.129 -0.106,0.285 -0.106,0.453 v 1.573 c 0,0.434 0.26,0.787 0.582,0.787 0.321,0 0.581,-0.353 0.581,-0.787 V 12.65 c 0,-0.168 -0.039,-0.325 -0.106,-0.453 l 3.658,-0.002 c 0.106,0 0.207,-0.007 0.305,-0.017 z m 1.629,-6.489 c -0.174,-0.039 -0.369,-0.062 -0.577,-0.062 l -14.169,0.009 c -0.359,10e-4 -0.685,0.067 -0.917,0.174 L 12.102,8.899 H 28.9 Z M 19.235,7.667 V 6.515 h 2.726 v 1.094 c 0,0.045 0.004,0.087 0.011,0.129 H 19.23 C 19.231,7.712 19.235,7.69 19.235,7.667 Z"
           style="fill:#4256e7;fill-opacity:1" /></g></g></g><g
     id="g3858"
     transform="translate(-2.667)" /><g
     id="g3860"
     transform="translate(-2.667)" /><g
     id="g3862"
     transform="translate(-2.667)" /><g
     id="g3864"
     transform="translate(-2.667)" /><g
     id="g3866"
     transform="translate(-2.667)" /><g
     id="g3868"
     transform="translate(-2.667)" /><g
     id="g3870"
     transform="translate(-2.667)" /><g
     id="g3872"
     transform="translate(-2.667)" /><g
     id="g3874"
     transform="translate(-2.667)" /><g
     id="g3876"
     transform="translate(-2.667)" /><g
     id="g3878"
     transform="translate(-2.667)" /><g
     id="g3880"
     transform="translate(-2.667)" /><g
     id="g3882"
     transform="translate(-2.667)" /><g
     id="g3884"
     transform="translate(-2.667)" /><g
     id="g3886"
     transform="translate(-2.667)" /><path
     id="path3850-6"
     inkscape:connector-curvature="0"
     d="M 27.113,7.783 C 27.088,7.777 27.063,7.777 27.037,7.774 26.982,7.752 26.923,7.738 26.861,7.738 H 20.445 C 20.451,7.696 20.456,7.654 20.456,7.609 V 6.232 c 0,-0.151 -0.042,-0.288 -0.11,-0.401 -0.064,-0.272 -0.37,-0.479 -0.741,-0.479 h -3.341 c -0.396,0 -0.719,0.238 -0.748,0.539 -0.07,0.112 -0.109,0.25 -0.109,0.4 v 1.375 c 0,0.025 0.002,0.047 0.005,0.072 H 8.733 C 8.641,7.738 8.559,7.764 8.483,7.809 8.217,7.919 8.069,8.236 8.15,8.56 l 3.417,13.619 c 0.088,0.35 0.414,0.57 0.723,0.492 0.021,-0.006 0.038,-0.014 0.056,-0.02 0.059,0.01 0.122,0.016 0.185,0.016 h 2.463 v 11.41 h 1.162 v -11.41 h 3.394 v 11.461 h 1.162 v -11.46 h 2.586 c 0.02,0 0.039,-0.002 0.057,-0.002 0.006,0 0.011,0.004 0.017,0.006 0.313,0.078 0.635,-0.143 0.724,-0.492 L 27.515,8.561 C 27.604,8.21 27.424,7.86 27.113,7.783 Z m -14.515,13.723 -0.7,-2.793 c 0.104,0.02 0.218,0.031 0.334,0.031 l 11.532,-0.008 -0.694,2.77 z M 10.24,12.115 c 0.201,0.056 0.439,0.09 0.694,0.09 l 3.281,-0.002 c -0.009,0.033 -0.012,0.065 -0.012,0.102 l 0.003,5.282 -1.976,0.002 c -0.218,0 -0.421,0.039 -0.59,0.101 z m 13.812,5.478 C 23.98,17.585 23.906,17.581 23.829,17.581 l -4.279,0.003 c 0,-0.019 0.004,-0.034 0.004,-0.051 V 16.68 c 0,-0.38 -0.26,-0.688 -0.582,-0.688 -0.32,0 -0.58,0.308 -0.58,0.688 v 0.853 c 0,0.017 0.003,0.033 0.003,0.053 l -3.03,0.001 -0.004,-5.284 c 0,-0.034 -0.005,-0.068 -0.014,-0.101 l 3.139,-10e-4 v 0.815 c 0,0.379 0.26,0.689 0.58,0.689 0.322,0 0.582,-0.31 0.582,-0.689 V 12.2 l 0.848,-10e-4 c -0.067,0.129 -0.106,0.285 -0.106,0.453 v 1.573 c 0,0.434 0.26,0.787 0.582,0.787 0.321,0 0.581,-0.353 0.581,-0.787 V 12.65 c 0,-0.168 -0.039,-0.325 -0.106,-0.453 l 3.658,-0.002 c 0.106,0 0.207,-0.007 0.305,-0.017 z m 1.629,-6.489 c -0.174,-0.039 -0.369,-0.062 -0.577,-0.062 l -14.169,0.009 c -0.359,10e-4 -0.685,0.067 -0.917,0.174 L 9.435,8.899 H 26.233 Z M 16.568,7.667 V 6.515 h 2.726 v 1.094 c 0,0.045 0.004,0.087 0.011,0.129 H 16.563 C 16.564,7.712 16.568,7.69 16.568,7.667 Z"
     style="fill:#4256e7;fill-opacity:1" /><path
     id="path634"
     style="fill:#000000;stroke-width:0.0698097"
     d="m 26.202141,4.1875 c -0.751022,-0.014428 -1.810528,0.3757146 -2.449219,0.9296875 -0.319697,0.2772919 -0.438072,0.438133 -0.839844,1.140625 -0.330881,0.5784588 -0.441519,0.7905808 -0.65625,1.4804687 h 4.478516 C 26.820491,7.5929174 26.891481,7.44643 26.950188,7.2949219 27.245773,6.5320903 27.321993,5.7233051 27.166984,5 27.071254,4.5533074 26.847308,4.2922448 26.502922,4.2207031 26.410394,4.2014816 26.309429,4.1895611 26.202141,4.1875 Z m 0.08789,9.253906 -0.886719,3.533203 c 0.04011,0.301444 -0.01866,0.561965 -0.183593,0.847657 -0.01465,0.02538 -0.03127,0.04832 -0.04687,0.07227 l -0.769532,3.064453 c 0.224839,-0.02551 0.454451,-0.06366 0.699219,-0.128906 1.096458,-0.292255 1.746993,-0.794319 2.337891,-1.80664 0.709534,-1.215556 0.720311,-2.618394 0.03125,-3.964844 -0.281931,-0.550911 -0.620268,-1.025423 -1.181641,-1.617188 z M 9.506828,13.964844 c -0.167273,0.207266 -0.321399,0.451035 -0.599609,0.933594 -0.6275309,1.088378 -0.7926423,1.615818 -0.8730471,2.800781 -0.093583,1.379261 0.241396,2.62851 1.0117191,3.773437 0.59996,0.891719 0.980151,1.239814 1.949218,1.791016 1.231982,0.700749 2.326403,1.020558 3.998047,1.089844 v -1.685547 h -2.46289 c -0.063,0 -0.124594,-0.0076 -0.183594,-0.01758 -0.018,0.006 -0.03564,0.01548 -0.05664,0.02148 -0.308999,0.078 -0.634656,-0.142188 -0.722656,-0.492187 l -0.457031,-1.822266 c -0.617413,-0.80047 -0.868092,-1.792608 -0.722656,-2.88086 z m 13.847656,8.701172 c -0.018,0 -0.03664,0.002 -0.05664,0.002 h -2.585938 v 1.603515 c 0.117522,0.01285 0.234629,0.02263 0.357422,0.04102 2.108896,0.315882 3.298005,1.374203 3.195313,2.841797 -0.03687,0.526917 -0.502374,1.340401 -0.994141,1.736328 -0.622639,0.501303 -1.539243,0.657417 -2.494141,0.425781 -0.02148,-0.0052 -0.043,-0.01207 -0.06445,-0.01758 v 2.308594 c 0.522474,0.09293 1.039251,0.125703 1.556641,0.08789 1.654177,-0.120891 3.296972,-1.375792 3.955078,-3.023437 0.986879,-2.470762 -0.132057,-4.847935 -2.601563,-6 -0.08101,0.01913 -0.165541,0.02105 -0.25,0 -0.006,-0.002 -0.01158,-0.0059 -0.01758,-0.0059 z m -10.554687,3.251953 c -1.717395,0.05547 -3.397567,0.722697 -4.8632814,1.320312 4.4479264,-0.08918 5.5948904,0.136622 7.0566404,1.142578 v -2.146484 c -0.728473,-0.248294 -1.464577,-0.339944 -2.193359,-0.316406 z" /><path
     style="fill:#000000;stroke-width:0.0698097"
     d="m 26.222822,28.670992 c 1.190445,-2.980413 -0.676454,-5.829604 -4.291498,-6.549526 -1.265196,-0.251959 -1.913447,-0.269595 -4.386575,-0.119331 -2.553099,0.15512 -3.70552,0.04058 -4.938191,-0.490837 -0.506899,-0.218528 -0.677455,-0.323256 -1.008795,-0.619462 -0.521069,-0.465817 -0.885264,-1.02681 -1.083434,-1.654014 l -2.47944,-1.538073 c -0.09358,1.379263 0.240957,2.627094 1.011281,3.772022 0.599961,0.89172 0.979105,1.240388 1.948173,1.79159 1.776212,1.010306 3.237802,1.241998 6.609604,1.047783 2.088006,-0.120271 2.651813,-0.119968 3.465135,0.0018 2.108898,0.315882 3.298943,1.373813 3.196251,2.841408 z"
     id="path646"
     sodipodi:nodetypes="cssssccsssscc" /><path
     style="fill:#000000;stroke-width:0.0698097"
     d="m 27.439828,19.022882 c 0.709535,-1.215557 0.720732,-2.617904 0.03167,-3.964356 -0.444529,-0.868639 -1.023859,-1.54127 -2.408278,-2.796137 -0.975555,-0.884263 -1.087943,-1.219204 -0.658807,-1.9634 0.199087,-0.3451955 0.383203,-0.5470667 0.965294,-1.0581566 0.915836,-0.804129 1.3396,-1.3261176 1.57978,-1.9459682 0.295586,-0.7628323 0.372048,-1.5711714 0.217039,-2.2944772 -0.09573,-0.446693 -0.318329,-0.7088013 -0.662715,-0.780343 -0.740222,-0.1537726 -2.021016,0.2638309 -2.75095,0.8969434 -0.319697,0.2772922 -0.43842,0.4385222 -0.840192,1.1410149 -0.449149,0.7852194 -0.486827,0.8831444 -0.939604,2.4383969 -0.551233,1.8934438 -0.614019,2.3894888 -0.402408,3.1792998 0.190488,0.710961 0.62061,1.329143 1.44269,2.073467 1.769446,1.602081 2.056649,1.933836 2.300949,2.657898 0.160223,0.474864 0.133263,0.820273 -0.09485,1.21539 z"
     id="path649"
     sodipodi:nodetypes="csscssssscsssscc" /></svg>
